<svg width="52" height="52" viewBox="0 0 52 52" fill="none" xmlns="http://www.w3.org/2000/svg">
<g filter="url(#filter0_d_2_102)">
<path d="M21.125 8.12506H11.375C10.513 8.12506 9.6864 8.46747 9.0769 9.07696C8.46741 9.68646 8.125 10.5131 8.125 11.3751V21.1251C8.125 21.987 8.46741 22.8137 9.0769 23.4232C9.6864 24.0327 10.513 24.3751 11.375 24.3751H21.125C21.987 24.3751 22.8136 24.0327 23.4231 23.4232C24.0326 22.8137 24.375 21.987 24.375 21.1251V11.3751C24.375 10.5131 24.0326 9.68646 23.4231 9.07696C22.8136 8.46747 21.987 8.12506 21.125 8.12506ZM21.125 21.1251H11.375V11.3751H21.125V21.1251ZM40.625 8.12506H30.875C30.013 8.12506 29.1864 8.46747 28.5769 9.07696C27.9674 9.68646 27.625 10.5131 27.625 11.3751V21.1251C27.625 21.987 27.9674 22.8137 28.5769 23.4232C29.1864 24.0327 30.013 24.3751 30.875 24.3751H40.625C41.487 24.3751 42.3136 24.0327 42.9231 23.4232C43.5326 22.8137 43.875 21.987 43.875 21.1251V11.3751C43.875 10.5131 43.5326 9.68646 42.9231 9.07696C42.3136 8.46747 41.487 8.12506 40.625 8.12506ZM40.625 21.1251H30.875V11.3751H40.625V21.1251ZM21.125 27.6251H11.375C10.513 27.6251 9.6864 27.9675 9.0769 28.577C8.46741 29.1865 8.125 30.0131 8.125 30.8751V40.6251C8.125 41.487 8.46741 42.3137 9.0769 42.9232C9.6864 43.5326 10.513 43.8751 11.375 43.8751H21.125C21.987 43.8751 22.8136 43.5326 23.4231 42.9232C24.0326 42.3137 24.375 41.487 24.375 40.6251V30.8751C24.375 30.0131 24.0326 29.1865 23.4231 28.577C22.8136 27.9675 21.987 27.6251 21.125 27.6251ZM21.125 40.6251H11.375V30.8751H21.125V40.6251ZM40.625 27.6251H30.875C30.013 27.6251 29.1864 27.9675 28.5769 28.577C27.9674 29.1865 27.625 30.0131 27.625 30.8751V40.6251C27.625 41.487 27.9674 42.3137 28.5769 42.9232C29.1864 43.5326 30.013 43.8751 30.875 43.8751H40.625C41.487 43.8751 42.3136 43.5326 42.9231 42.9232C43.5326 42.3137 43.875 41.487 43.875 40.6251V30.8751C43.875 30.0131 43.5326 29.1865 42.9231 28.577C42.3136 27.9675 41.487 27.6251 40.625 27.6251ZM40.625 40.6251H30.875V30.8751H40.625V40.6251Z" fill="#CADFF5"/>
</g>
<defs>
<filter id="filter0_d_2_102" x="-4" y="0" width="60" height="60" filterUnits="userSpaceOnUse" color-interpolation-filters="sRGB">
<feFlood flood-opacity="0" result="BackgroundImageFix"/>
<feColorMatrix in="SourceAlpha" type="matrix" values="0 0 0 0 0 0 0 0 0 0 0 0 0 0 0 0 0 0 127 0" result="hardAlpha"/>
<feOffset dy="4"/>
<feGaussianBlur stdDeviation="2"/>
<feComposite in2="hardAlpha" operator="out"/>
<feColorMatrix type="matrix" values="0 0 0 0 0 0 0 0 0 0 0 0 0 0 0 0 0 0 0.25 0"/>
<feBlend mode="normal" in2="BackgroundImageFix" result="effect1_dropShadow_2_102"/>
<feBlend mode="normal" in="SourceGraphic" in2="effect1_dropShadow_2_102" result="shape"/>
</filter>
</defs>
</svg>
