<svg width="61" height="54" viewBox="0 0 61 54" fill="none" xmlns="http://www.w3.org/2000/svg">
<path d="M50.9112 18.0689L39.4737 28.1939C39.116 28.5105 38.6308 28.6884 38.125 28.6884C37.6192 28.6884 37.134 28.5105 36.7763 28.1939C36.4186 27.8773 36.2177 27.4478 36.2177 27C36.2177 26.5522 36.4186 26.1227 36.7763 25.8061L44.9613 18.5625H17.1562V47.25C17.1562 47.6975 16.9554 48.1268 16.5979 48.4432C16.2404 48.7597 15.7556 48.9375 15.25 48.9375C14.7444 48.9375 14.2596 48.7597 13.9021 48.4432C13.5446 48.1268 13.3438 47.6975 13.3438 47.25V16.875C13.3438 16.4274 13.5446 15.9982 13.9021 15.6817C14.2596 15.3653 14.7444 15.1875 15.25 15.1875H44.9613L36.7763 7.9439C36.4186 7.62725 36.2177 7.19779 36.2177 6.74999C36.2177 6.30219 36.4186 5.87273 36.7763 5.55609C37.134 5.23944 37.6192 5.06155 38.125 5.06155C38.6308 5.06155 39.116 5.23944 39.4737 5.55609L50.9112 15.6811C51.0884 15.8378 51.229 16.0239 51.3249 16.2288C51.4209 16.4336 51.4702 16.6532 51.4702 16.875C51.4702 17.0968 51.4209 17.3163 51.3249 17.5212C51.229 17.7261 51.0884 17.9122 50.9112 18.0689Z" fill="white"/>
</svg>
