<svg width="58" height="54" viewBox="0 0 58 54" fill="none" xmlns="http://www.w3.org/2000/svg">
<g filter="url(#filter0_d_2_70)">
<path d="M51.75 22.7501H49.5562L43.9134 10.0547C43.6581 9.48037 43.2416 8.99236 42.7145 8.64986C42.1874 8.30736 41.5723 8.12507 40.9437 8.12506H17.0562C16.4277 8.12507 15.8126 8.30736 15.2855 8.64986C14.7584 8.99236 14.3419 9.48037 14.0866 10.0547L8.44375 22.7501H6.25C5.81902 22.7501 5.4057 22.9213 5.10095 23.226C4.7962 23.5308 4.625 23.9441 4.625 24.3751C4.625 24.806 4.7962 25.2194 5.10095 25.5241C5.4057 25.8289 5.81902 26.0001 6.25 26.0001H7.875V42.2501C7.875 43.112 8.21741 43.9387 8.8269 44.5482C9.4364 45.1576 10.263 45.5001 11.125 45.5001H16C16.862 45.5001 17.6886 45.1576 18.2981 44.5482C18.9076 43.9387 19.25 43.112 19.25 42.2501V39.0001H38.75V42.2501C38.75 43.112 39.0924 43.9387 39.7019 44.5482C40.3114 45.1576 41.138 45.5001 42 45.5001H46.875C47.7369 45.5001 48.5636 45.1576 49.1731 44.5482C49.7826 43.9387 50.125 43.112 50.125 42.2501V26.0001H51.75C52.181 26.0001 52.5943 25.8289 52.899 25.5241C53.2038 25.2194 53.375 24.806 53.375 24.3751C53.375 23.9441 53.2038 23.5308 52.899 23.226C52.5943 22.9213 52.181 22.7501 51.75 22.7501ZM17.0562 11.3751H40.9437L45.9995 22.7501H12.0005L17.0562 11.3751ZM16 42.2501H11.125V39.0001H16V42.2501ZM42 42.2501V39.0001H46.875V42.2501H42ZM46.875 35.7501H11.125V26.0001H46.875V35.7501ZM14.375 30.8751C14.375 30.4441 14.5462 30.0308 14.851 29.726C15.1557 29.4213 15.569 29.2501 16 29.2501H19.25C19.681 29.2501 20.0943 29.4213 20.399 29.726C20.7038 30.0308 20.875 30.4441 20.875 30.8751C20.875 31.306 20.7038 31.7194 20.399 32.0241C20.0943 32.3289 19.681 32.5001 19.25 32.5001H16C15.569 32.5001 15.1557 32.3289 14.851 32.0241C14.5462 31.7194 14.375 31.306 14.375 30.8751ZM37.125 30.8751C37.125 30.4441 37.2962 30.0308 37.6009 29.726C37.9057 29.4213 38.319 29.2501 38.75 29.2501H42C42.431 29.2501 42.8443 29.4213 43.149 29.726C43.4538 30.0308 43.625 30.4441 43.625 30.8751C43.625 31.306 43.4538 31.7194 43.149 32.0241C42.8443 32.3289 42.431 32.5001 42 32.5001H38.75C38.319 32.5001 37.9057 32.3289 37.6009 32.0241C37.2962 31.7194 37.125 31.306 37.125 30.8751Z" fill="#CADFF5"/>
</g>
<defs>
<filter id="filter0_d_2_70" x="-1" y="0" width="60" height="60" filterUnits="userSpaceOnUse" color-interpolation-filters="sRGB">
<feFlood flood-opacity="0" result="BackgroundImageFix"/>
<feColorMatrix in="SourceAlpha" type="matrix" values="0 0 0 0 0 0 0 0 0 0 0 0 0 0 0 0 0 0 127 0" result="hardAlpha"/>
<feOffset dy="4"/>
<feGaussianBlur stdDeviation="2"/>
<feComposite in2="hardAlpha" operator="out"/>
<feColorMatrix type="matrix" values="0 0 0 0 0 0 0 0 0 0 0 0 0 0 0 0 0 0 0.25 0"/>
<feBlend mode="normal" in2="BackgroundImageFix" result="effect1_dropShadow_2_70"/>
<feBlend mode="normal" in="SourceGraphic" in2="effect1_dropShadow_2_70" result="shape"/>
</filter>
</defs>
</svg>
