<svg width="30" height="30" viewBox="0 0 30 30" fill="none" xmlns="http://www.w3.org/2000/svg">
<path d="M23.025 6.50625C22.8963 6.36809 22.741 6.25727 22.5685 6.18041C22.396 6.10355 22.2098 6.06222 22.021 6.05889C21.8322 6.05556 21.6446 6.09029 21.4695 6.16102C21.2944 6.23174 21.1353 6.33702 21.0018 6.47055C20.8683 6.60409 20.763 6.76315 20.6923 6.93825C20.6215 7.11336 20.5868 7.30091 20.5901 7.48973C20.5935 7.67855 20.6348 7.86476 20.7117 8.03726C20.7885 8.20976 20.8993 8.36501 21.0375 8.49375L21.5344 8.99062C17.6062 9.46687 15.2156 11.8594 13.1494 13.9237L13.0687 14.0062C10.7044 16.3687 8.73375 18.2812 5.15625 18.2812C4.78329 18.2812 4.4256 18.4294 4.16188 18.6931C3.89816 18.9569 3.75 19.3145 3.75 19.6875C3.75 20.0605 3.89816 20.4181 4.16188 20.6819C4.4256 20.9456 4.78329 21.0937 5.15625 21.0937C9.95813 21.0937 12.6694 18.3825 14.9756 16.0762L15.0562 15.9937C17.025 14.025 18.7181 12.375 21.2944 11.8725L21.0375 12.1312C20.7891 12.3978 20.6539 12.7504 20.6603 13.1147C20.6667 13.479 20.8143 13.8266 21.072 14.0843C21.3296 14.3419 21.6772 14.4895 22.0415 14.496C22.4058 14.5024 22.7584 14.3671 23.025 14.1187L25.8375 11.3062C26.1008 11.0426 26.2488 10.6852 26.2488 10.3125C26.2488 9.93984 26.1008 9.58242 25.8375 9.31875L23.025 6.50625ZM5.15625 8.90625C8.47312 8.90625 10.7925 10.2 12.6694 11.76C12.4012 12.0225 12.1444 12.2775 11.9006 12.5231L11.7431 12.6806C11.3587 13.0631 10.9988 13.4194 10.6538 13.7494C9.135 12.5306 7.485 11.7187 5.15625 11.7187C4.78329 11.7187 4.4256 11.5706 4.16188 11.3069C3.89816 11.0431 3.75 10.6855 3.75 10.3125C3.75 9.93954 3.89816 9.58185 4.16188 9.31813C4.4256 9.05441 4.78329 8.90625 5.15625 8.90625ZM21.5344 21.0094C18.9619 20.6981 17.0494 19.5656 15.4556 18.24C15.7238 17.9775 15.9806 17.7225 16.2244 17.4769L16.3819 17.3194C16.7663 16.9369 17.1262 16.5806 17.4712 16.2506C18.6 17.1562 19.7963 17.8369 21.2944 18.1256L21.0375 17.8687C20.7891 17.6022 20.6539 17.2496 20.6603 16.8853C20.6667 16.521 20.8143 16.1734 21.072 15.9157C21.3296 15.6581 21.6772 15.5105 22.0415 15.504C22.4058 15.4976 22.7584 15.6328 23.025 15.8812L25.8375 18.6937C26.1008 18.9574 26.2488 19.3148 26.2488 19.6875C26.2488 20.0602 26.1008 20.4176 25.8375 20.6812L23.025 23.4937C22.8963 23.6319 22.741 23.7427 22.5685 23.8196C22.396 23.8964 22.2098 23.9378 22.021 23.9411C21.8322 23.9444 21.6446 23.9097 21.4695 23.839C21.2944 23.7683 21.1353 23.663 21.0018 23.5294C20.8683 23.3959 20.763 23.2368 20.6923 23.0617C20.6215 22.8866 20.5868 22.6991 20.5901 22.5103C20.5935 22.3215 20.6348 22.1352 20.7117 21.9627C20.7885 21.7902 20.8993 21.635 21.0375 21.5062L21.5344 21.0094Z" fill="white"/>
</svg>
