<svg width="30" height="30" viewBox="0 0 30 30" fill="none" xmlns="http://www.w3.org/2000/svg">
<path d="M5.625 4.6875C5.625 4.43886 5.52623 4.2004 5.35041 4.02459C5.1746 3.84877 4.93614 3.75 4.6875 3.75C4.43886 3.75 4.2004 3.84877 4.02459 4.02459C3.84877 4.2004 3.75 4.43886 3.75 4.6875V25.3125C3.75 25.5611 3.84877 25.7996 4.02459 25.9754C4.2004 26.1512 4.43886 26.25 4.6875 26.25C4.93614 26.25 5.1746 26.1512 5.35041 25.9754C5.52623 25.7996 5.625 25.5611 5.625 25.3125V4.6875ZM26.2528 6.0975C26.2528 4.22062 24.1566 3.105 22.5994 4.15406L9.47156 12.9966C9.15437 13.2104 8.89434 13.4986 8.71418 13.8361C8.53401 14.1736 8.43919 14.55 8.43799 14.9326C8.43679 15.3151 8.52924 15.6921 8.70728 16.0307C8.88532 16.3693 9.14353 16.6592 9.45938 16.875L22.5872 25.8375C24.1434 26.8988 26.2528 25.785 26.2528 23.9006V6.09937V6.0975Z" fill="white"/>
</svg>
