<svg width="54" height="56" viewBox="0 0 54 56" fill="none" xmlns="http://www.w3.org/2000/svg">
<g filter="url(#filter0_d_2_118)">
<path d="M27 16.25C25.0716 16.25 23.1866 16.8219 21.5832 17.8932C19.9798 18.9646 18.7301 20.4873 17.9922 22.2689C17.2542 24.0505 17.0611 26.0109 17.4373 27.9022C17.8135 29.7935 18.7421 31.5308 20.1057 32.8943C21.4693 34.2579 23.2065 35.1865 25.0979 35.5627C26.9892 35.9389 28.9496 35.7458 30.7312 35.0079C32.5127 34.2699 34.0355 33.0202 35.1068 31.4169C36.1782 29.8135 36.75 27.9284 36.75 26C36.7473 23.415 35.7192 20.9366 33.8913 19.1087C32.0634 17.2808 29.585 16.2527 27 16.25ZM27 32.5C25.7144 32.5 24.4577 32.1188 23.3888 31.4046C22.3199 30.6904 21.4867 29.6752 20.9948 28.4875C20.5028 27.2998 20.3741 25.9928 20.6249 24.732C20.8757 23.4711 21.4948 22.3129 22.4038 21.4038C23.3128 20.4948 24.471 19.8757 25.7319 19.6249C26.9928 19.3741 28.2997 19.5029 29.4874 19.9948C30.6751 20.4868 31.6903 21.3199 32.4045 22.3888C33.1188 23.4578 33.5 24.7145 33.5 26C33.5 27.7239 32.8152 29.3772 31.5962 30.5962C30.3772 31.8152 28.7239 32.5 27 32.5ZM49.3316 21.7771C49.2863 21.5482 49.1923 21.3318 49.056 21.1426C48.9196 20.9533 48.7441 20.7956 48.5414 20.6802L42.4822 17.2271L42.4578 10.398C42.4571 10.1628 42.4053 9.93059 42.306 9.71737C42.2068 9.50414 42.0624 9.315 41.883 9.16301C39.685 7.3038 37.1539 5.87902 34.4242 4.96442C34.2092 4.89166 33.9814 4.86473 33.7554 4.88537C33.5294 4.90601 33.3102 4.97376 33.112 5.08426L27 8.50082L20.8819 5.07817C20.6835 4.96705 20.4641 4.89879 20.2377 4.87779C20.0113 4.8568 19.783 4.88354 19.5676 4.95629C16.84 5.87758 14.3118 7.3078 12.117 9.17114C11.9378 9.32291 11.7936 9.51172 11.6944 9.72457C11.5951 9.93742 11.5432 10.1693 11.5422 10.4041L11.5117 17.2393L5.45249 20.6924C5.24977 20.8078 5.07428 20.9655 4.93794 21.1548C4.80159 21.344 4.7076 21.5604 4.66233 21.7893C4.10779 24.5759 4.10779 27.4445 4.66233 30.2311C4.7076 30.46 4.80159 30.6764 4.93794 30.8656C5.07428 31.0549 5.24977 31.2126 5.45249 31.328L11.5117 34.7811L11.5361 41.6102C11.5368 41.8454 11.5886 42.0776 11.6878 42.2908C11.7871 42.5041 11.9314 42.6932 12.1109 42.8452C14.3089 44.7044 16.84 46.1292 19.5697 47.0438C19.7846 47.1166 20.0125 47.1435 20.2385 47.1228C20.4645 47.1022 20.6836 47.0344 20.8819 46.9239L27 43.4993L33.1181 46.9219C33.3602 47.0568 33.6331 47.1268 33.9103 47.125C34.0878 47.125 34.2641 47.0962 34.4323 47.0397C37.1597 46.1197 39.6879 44.6908 41.883 42.8289C42.0622 42.6772 42.2064 42.4884 42.3056 42.2755C42.4049 42.0627 42.4568 41.8308 42.4578 41.596L42.4883 34.7608L48.5475 31.3077C48.7502 31.1923 48.9257 31.0346 49.062 30.8453C49.1984 30.6561 49.2924 30.4397 49.3376 30.2108C49.8891 27.4264 49.887 24.5607 49.3316 21.7771ZM46.2847 28.8682L40.4814 32.1689C40.2271 32.3135 40.0166 32.5241 39.872 32.7783C39.7542 32.9814 39.6303 33.1968 39.5044 33.3999C39.3432 33.656 39.2573 33.9524 39.2566 34.255L39.2261 40.8058C37.6662 42.0308 35.9284 43.0103 34.0728 43.7105L28.2187 40.4483C27.9757 40.3139 27.7023 40.2439 27.4245 40.2452H27.3859C27.1401 40.2452 26.8923 40.2452 26.6466 40.2452C26.3559 40.2379 26.0684 40.308 25.8137 40.4483L19.9556 43.7186C18.096 43.0238 16.3534 42.0491 14.7881 40.8282L14.7658 34.2875C14.7648 33.9843 14.6789 33.6874 14.518 33.4304C14.392 33.2272 14.2681 33.0241 14.1523 32.8088C14.0088 32.5506 13.7983 32.3359 13.543 32.1872L7.73358 28.8783C7.43296 26.9767 7.43296 25.0396 7.73358 23.138L13.5267 19.8311C13.781 19.6866 13.9915 19.476 14.1361 19.2218C14.2539 19.0186 14.3778 18.8033 14.5037 18.6002C14.6649 18.344 14.7508 18.0477 14.7516 17.745L14.782 11.1943C16.3419 9.96931 18.0797 8.98979 19.9353 8.28957L25.7812 11.5518C26.0357 11.6928 26.3233 11.7629 26.6141 11.7549C26.8598 11.7549 27.1076 11.7549 27.3534 11.7549C27.6441 11.7621 27.9315 11.692 28.1862 11.5518L34.0444 8.28145C35.904 8.97629 37.6465 9.95101 39.2119 11.1719L39.2342 17.7125C39.2352 18.0158 39.3211 18.3127 39.482 18.5697C39.608 18.7729 39.7319 18.976 39.8476 19.1913C39.9912 19.4495 40.2017 19.6642 40.457 19.8129L46.2664 23.1218C46.571 25.0249 46.5745 26.964 46.2766 28.8682H46.2847Z" fill="#CADFF5"/>
</g>
<defs>
<filter id="filter0_d_2_118" x="-3" y="0" width="60" height="60" filterUnits="userSpaceOnUse" color-interpolation-filters="sRGB">
<feFlood flood-opacity="0" result="BackgroundImageFix"/>
<feColorMatrix in="SourceAlpha" type="matrix" values="0 0 0 0 0 0 0 0 0 0 0 0 0 0 0 0 0 0 127 0" result="hardAlpha"/>
<feOffset dy="4"/>
<feGaussianBlur stdDeviation="2"/>
<feComposite in2="hardAlpha" operator="out"/>
<feColorMatrix type="matrix" values="0 0 0 0 0 0 0 0 0 0 0 0 0 0 0 0 0 0 0.25 0"/>
<feBlend mode="normal" in2="BackgroundImageFix" result="effect1_dropShadow_2_118"/>
<feBlend mode="normal" in="SourceGraphic" in2="effect1_dropShadow_2_118" result="shape"/>
</filter>
</defs>
</svg>
