<svg width="15" height="15" viewBox="0 0 15 15" fill="none" xmlns="http://www.w3.org/2000/svg">
<path d="M12.644 6.92399C12.6262 6.84886 12.5902 6.77928 12.5391 6.72142C12.488 6.66357 12.4234 6.61923 12.351 6.59235L8.97541 5.32614L9.83439 1.02946C9.85384 0.929628 9.8403 0.826179 9.7958 0.734722C9.7513 0.643266 9.67826 0.568764 9.5877 0.522461C9.49714 0.476157 9.39398 0.460563 9.29378 0.478032C9.19359 0.495501 9.10179 0.545086 9.03225 0.619303L2.46975 7.65055C2.41645 7.70672 2.37789 7.77521 2.35752 7.84991C2.33715 7.92461 2.3356 8.00319 2.35301 8.07864C2.37042 8.15408 2.40625 8.22404 2.45729 8.28226C2.50834 8.34048 2.57301 8.38515 2.64553 8.41227L6.02228 9.67848L5.16564 13.9705C5.14619 14.0703 5.15974 14.1738 5.20424 14.2652C5.24874 14.3567 5.32178 14.4312 5.41234 14.4775C5.5029 14.5238 5.60606 14.5394 5.70625 14.5219C5.80645 14.5044 5.89825 14.4548 5.96779 14.3806L12.5303 7.34938C12.5826 7.29321 12.6204 7.22504 12.6402 7.15086C12.66 7.07669 12.6613 6.99878 12.644 6.92399ZM6.40842 12.539L7.02189 9.46989C7.04385 9.36104 7.02645 9.24793 6.9728 9.15071C6.91915 9.05349 6.83272 8.97848 6.72893 8.93903L3.63283 7.77595L8.59103 2.46383L7.97814 5.53298C7.95619 5.64182 7.97359 5.75493 8.02724 5.85215C8.08089 5.94937 8.16732 6.02439 8.27111 6.06384L11.3649 7.22399L6.40842 12.539Z" fill="#3E8AFC"/>
</svg>
