<svg width="52" height="57" viewBox="0 0 52 57" fill="none" xmlns="http://www.w3.org/2000/svg">
<g filter="url(#filter0_d_2_54)">
<path d="M26 13C24.393 13 22.8221 13.4765 21.486 14.3693C20.1498 15.2621 19.1084 16.531 18.4935 18.0157C17.8785 19.5003 17.7176 21.134 18.0311 22.7101C18.3446 24.2862 19.1185 25.7339 20.2548 26.8702C21.3911 28.0065 22.8388 28.7804 24.4149 29.0939C25.991 29.4074 27.6247 29.2465 29.1093 28.6315C30.594 28.0166 31.8629 26.9752 32.7557 25.639C33.6485 24.3029 34.125 22.732 34.125 21.125C34.125 18.9701 33.269 16.9035 31.7452 15.3798C30.2215 13.856 28.1549 13 26 13ZM26 26C25.0358 26 24.0933 25.7141 23.2916 25.1784C22.4899 24.6427 21.8651 23.8814 21.4961 22.9906C21.1271 22.0998 21.0306 21.1196 21.2187 20.1739C21.4068 19.2283 21.8711 18.3596 22.5529 17.6779C23.2346 16.9961 24.1033 16.5318 25.0489 16.3437C25.9946 16.1556 26.9748 16.2521 27.8656 16.6211C28.7564 16.9901 29.5177 17.6149 30.0534 18.4166C30.5891 19.2183 30.875 20.1608 30.875 21.125C30.875 22.4179 30.3614 23.6579 29.4471 24.5721C28.5329 25.4864 27.2929 26 26 26ZM26 3.25C21.2609 3.25538 16.7175 5.14036 13.3664 8.4914C10.0154 11.8425 8.13038 16.3859 8.125 21.125C8.125 27.5031 11.0723 34.2631 16.6562 40.6758C19.1653 43.5735 21.9892 46.1828 25.0758 48.4555C25.349 48.6469 25.6745 48.7495 26.0081 48.7495C26.3417 48.7495 26.6672 48.6469 26.9405 48.4555C30.0214 46.1819 32.8398 43.5726 35.3438 40.6758C40.9195 34.2631 43.875 27.5031 43.875 21.125C43.8696 16.3859 41.9846 11.8425 38.6336 8.4914C35.2825 5.14036 30.7391 3.25538 26 3.25ZM26 45.0938C22.6423 42.4531 11.375 32.7539 11.375 21.125C11.375 17.2462 12.9158 13.5263 15.6586 10.7836C18.4013 8.04084 22.1212 6.5 26 6.5C29.8788 6.5 33.5987 8.04084 36.3414 10.7836C39.0842 13.5263 40.625 17.2462 40.625 21.125C40.625 32.7498 29.3577 42.4531 26 45.0938Z" fill="#CADFF5"/>
</g>
<defs>
<filter id="filter0_d_2_54" x="-4" y="0" width="60" height="60" filterUnits="userSpaceOnUse" color-interpolation-filters="sRGB">
<feFlood flood-opacity="0" result="BackgroundImageFix"/>
<feColorMatrix in="SourceAlpha" type="matrix" values="0 0 0 0 0 0 0 0 0 0 0 0 0 0 0 0 0 0 127 0" result="hardAlpha"/>
<feOffset dy="4"/>
<feGaussianBlur stdDeviation="2"/>
<feComposite in2="hardAlpha" operator="out"/>
<feColorMatrix type="matrix" values="0 0 0 0 0 0 0 0 0 0 0 0 0 0 0 0 0 0 0.25 0"/>
<feBlend mode="normal" in2="BackgroundImageFix" result="effect1_dropShadow_2_54"/>
<feBlend mode="normal" in="SourceGraphic" in2="effect1_dropShadow_2_54" result="shape"/>
</filter>
</defs>
</svg>
