<svg width="30" height="30" viewBox="0 0 30 30" fill="none" xmlns="http://www.w3.org/2000/svg">
<path d="M26.155 7.02124C26.0921 6.86971 25.9999 6.73207 25.8837 6.61624L22.1337 2.86624C22.0184 2.74686 21.8805 2.65163 21.728 2.58612C21.5755 2.52061 21.4115 2.48612 21.2455 2.48468C21.0795 2.48324 20.9149 2.51487 20.7613 2.57772C20.6077 2.64057 20.4681 2.73339 20.3508 2.85075C20.2334 2.96812 20.1406 3.10768 20.0777 3.2613C20.0149 3.41492 19.9832 3.57952 19.9847 3.7455C19.9861 3.91147 20.0206 4.0755 20.0861 4.228C20.1516 4.38051 20.2469 4.51844 20.3662 4.63374L21.9825 6.24999H10C8.34239 6.24999 6.75268 6.90847 5.58058 8.08058C4.40848 9.25268 3.75 10.8424 3.75 12.5V15C3.75 15.3315 3.88169 15.6495 4.11611 15.8839C4.35053 16.1183 4.66848 16.25 5 16.25C5.33152 16.25 5.64946 16.1183 5.88388 15.8839C6.1183 15.6495 6.25 15.3315 6.25 15V12.5C6.25 11.5054 6.64509 10.5516 7.34835 9.84834C8.05161 9.14508 9.00544 8.74999 10 8.74999H21.9825L20.3662 10.3662C20.1385 10.602 20.0126 10.9177 20.0154 11.2455C20.0183 11.5732 20.1497 11.8868 20.3815 12.1185C20.6132 12.3503 20.9268 12.4817 21.2545 12.4846C21.5822 12.4874 21.898 12.3614 22.1337 12.1337L25.8837 8.38374C26 8.26782 26.0922 8.13007 26.155 7.97841C26.2179 7.82675 26.2502 7.66416 26.25 7.49999M26.155 7.02124C26.2175 7.17183 26.2497 7.33322 26.25 7.49624L26.155 7.02124ZM3.845 22.0212C3.74986 22.2496 3.72486 22.5012 3.77316 22.7438C3.82147 22.9864 3.9409 23.2092 4.11625 23.3837L7.86625 27.1337C8.102 27.3614 8.41775 27.4874 8.7455 27.4846C9.07325 27.4817 9.38676 27.3503 9.61852 27.1185C9.85028 26.8868 9.98174 26.5732 9.98459 26.2455C9.98744 25.9178 9.86144 25.602 9.63375 25.3662L8.0175 23.75H20C21.6576 23.75 23.2473 23.0915 24.4194 21.9194C25.5915 20.7473 26.25 19.1576 26.25 17.5V15C26.25 14.6685 26.1183 14.3505 25.8839 14.1161C25.6495 13.8817 25.3315 13.75 25 13.75C24.6685 13.75 24.3505 13.8817 24.1161 14.1161C23.8817 14.3505 23.75 14.6685 23.75 15V17.5C23.75 18.4946 23.3549 19.4484 22.6516 20.1516C21.9484 20.8549 20.9946 21.25 20 21.25H8.0175L9.63375 19.6337C9.75313 19.5184 9.84836 19.3805 9.91387 19.228C9.97939 19.0755 10.0139 18.9115 10.0153 18.7455C10.0168 18.5795 9.98513 18.4149 9.92227 18.2613C9.85942 18.1077 9.76661 17.9681 9.64924 17.8508C9.53188 17.7334 9.39231 17.6406 9.23869 17.5777C9.08507 17.5149 8.92047 17.4832 8.7545 17.4847C8.58852 17.4861 8.4245 17.5206 8.27199 17.5861C8.11949 17.6516 7.98156 17.7469 7.86625 17.8662L4.11625 21.6162M3.845 22.0212C3.90742 21.8708 3.99872 21.7341 4.11375 21.6187L3.845 22.0212Z" fill="white"/>
</svg>
