<svg width="52" height="54" viewBox="0 0 52 54" fill="none" xmlns="http://www.w3.org/2000/svg">
<g filter="url(#filter0_d_2_38)">
<path d="M45.1689 32.1872L35.5997 27.8992L35.5733 27.887C35.0765 27.6746 34.5346 27.5893 33.9966 27.639C33.4586 27.6886 32.9414 27.8716 32.4919 28.1714C32.439 28.2064 32.3881 28.2444 32.3396 28.2852L27.3955 32.5C24.2633 30.9786 21.0295 27.7692 19.5081 24.6777L23.7291 19.6585C23.7697 19.6077 23.8083 19.5569 23.8449 19.502C24.1382 19.0538 24.3162 18.5399 24.363 18.0062C24.4098 17.4725 24.3239 16.9355 24.113 16.443V16.4186L19.8128 6.83314C19.534 6.18977 19.0546 5.65383 18.4462 5.30531C17.8377 4.9568 17.1329 4.81441 16.4369 4.89939C13.6845 5.26158 11.158 6.6133 9.32941 8.70209C7.50079 10.7909 6.49504 13.4739 6.50002 16.25C6.50002 32.3781 19.6219 45.5 35.75 45.5C38.5261 45.505 41.2092 44.4992 43.2979 42.6706C45.3867 40.842 46.7385 38.3155 47.1006 35.5631C47.1858 34.8674 47.0437 34.1627 46.6956 33.5543C46.3474 32.9459 45.8119 32.4663 45.1689 32.1872ZM35.75 42.25C28.8567 42.2425 22.2479 39.5008 17.3736 34.6265C12.4992 29.7522 9.75755 23.1433 9.75002 16.25C9.74238 14.2665 10.457 12.348 11.7604 10.8528C13.0638 9.35761 14.8669 8.38799 16.833 8.12502C16.8322 8.13312 16.8322 8.14129 16.833 8.14939L21.0986 17.6963L16.9 22.7216C16.8574 22.7706 16.8187 22.8229 16.7842 22.878C16.4786 23.347 16.2992 23.8871 16.2637 24.4458C16.2281 25.0046 16.3374 25.563 16.5811 26.067C18.4214 29.831 22.2138 33.5949 26.0183 35.4331C26.526 35.6746 27.0877 35.7801 27.6485 35.7395C28.2092 35.6989 28.7498 35.5136 29.2175 35.2016C29.2697 35.1664 29.3198 35.1285 29.3678 35.0878L34.3058 30.875L43.8527 35.1508C43.8527 35.1508 43.8689 35.1508 43.875 35.1508C43.6152 37.1196 42.6471 38.9263 41.1516 40.233C39.6562 41.5397 37.7359 42.2567 35.75 42.25Z" fill="#CADFF5"/>
</g>
<defs>
<filter id="filter0_d_2_38" x="-4" y="0" width="60" height="60" filterUnits="userSpaceOnUse" color-interpolation-filters="sRGB">
<feFlood flood-opacity="0" result="BackgroundImageFix"/>
<feColorMatrix in="SourceAlpha" type="matrix" values="0 0 0 0 0 0 0 0 0 0 0 0 0 0 0 0 0 0 127 0" result="hardAlpha"/>
<feOffset dy="4"/>
<feGaussianBlur stdDeviation="2"/>
<feComposite in2="hardAlpha" operator="out"/>
<feColorMatrix type="matrix" values="0 0 0 0 0 0 0 0 0 0 0 0 0 0 0 0 0 0 0.25 0"/>
<feBlend mode="normal" in2="BackgroundImageFix" result="effect1_dropShadow_2_38"/>
<feBlend mode="normal" in="SourceGraphic" in2="effect1_dropShadow_2_38" result="shape"/>
</filter>
</defs>
</svg>
