<svg width="40" height="31" viewBox="0 0 40 31" fill="none" xmlns="http://www.w3.org/2000/svg">
<g clip-path="url(#clip0_2_300)">
<path d="M35.95 19.7201C35.9625 19.6051 36 19.4961 36 19.3811C36 17.2437 34.2062 15.5061 32 15.5061C31.2125 15.5061 30.4875 15.7361 29.8687 16.1115C28.7687 13.7623 26.3375 12.1154 23.5 12.1154C19.6375 12.1154 16.5 15.1488 16.5 18.8967C16.5 19.0783 16.5437 19.2479 16.5562 19.4234C13.4562 19.6475 11 22.1299 11 25.1936C11 28.4025 13.6875 31.0061 17 31.0061H34C37.3125 31.0061 40 28.4025 40 25.1936C40 22.6445 38.3 20.5072 35.95 19.7201ZM9.05 18.3518C6.31875 15.7059 6.31875 11.407 9.05 8.76719C11.7812 6.12129 16.2188 6.12129 18.95 8.76719C19.5563 9.35449 20.0063 10.0326 20.3438 10.7471C20.9562 10.523 21.6 10.3838 22.2625 10.293L24.125 4.91035C24.375 4.18984 23.6687 3.51172 22.925 3.74785L17.4375 5.52187L14.8438 0.508594C14.5 -0.169531 13.5 -0.169531 13.15 0.508594L10.5625 5.52187L5.06875 3.74785C4.33125 3.51172 3.625 4.1959 3.86875 4.91035L5.7 10.2264L0.525 12.7391C-0.175 13.0781 -0.175 14.0408 0.525 14.3799L5.7 16.8865L3.86875 22.2025C3.61875 22.923 4.325 23.6012 5.06875 23.365L9.825 21.8332C10.2063 21.0824 10.7 20.3982 11.3 19.8049C10.4812 19.4779 9.7125 18.9936 9.05 18.3518ZM8.75 13.5564C8.75 16.0268 10.5812 18.0854 12.9937 18.5395C13.4937 18.2549 14.0125 18.0066 14.5688 17.8311C14.9062 15.1488 16.5063 12.8359 18.7812 11.4736C17.9562 9.71172 16.125 8.47656 14 8.47656C11.1062 8.47656 8.75 10.7531 8.75 13.5564Z" fill="white"/>
</g>
<defs>
<clipPath id="clip0_2_300">
<rect width="40" height="31" fill="white"/>
</clipPath>
</defs>
</svg>
